<svg width="23" height="22" viewBox="0 0 23 22" fill="none" xmlns="http://www.w3.org/2000/svg">
<path d="M11.1111 0C4.97222 0 1.6211e-06 4.97222 1.6211e-06 11.1111C-0.00125838 13.4436 0.732012 15.7173 2.09579 17.6096C3.45957 19.5019 5.38459 20.9167 7.59779 21.6533C8.15329 21.75 8.36109 21.4166 8.36109 21.1244C8.36109 20.8611 8.34669 19.9866 8.34669 19.0555C5.55559 19.57 4.83333 18.3755 4.61111 17.75C4.48555 17.43 3.94444 16.4444 3.47222 16.18C3.08333 15.9722 2.52778 15.4577 3.45778 15.4444C4.33333 15.43 4.95778 16.25 5.16669 16.5833C6.16669 18.2633 7.76449 17.7911 8.40219 17.5C8.49999 16.7778 8.79109 16.2922 9.11109 16.0144C6.63889 15.7366 4.05555 14.7778 4.05555 10.5278C4.05555 9.31893 4.48555 8.32003 5.19449 7.54113C5.08333 7.26333 4.69444 6.12443 5.30559 4.59667C5.30559 4.59667 6.23559 4.30556 8.36109 5.73663C9.26559 5.48563 10.2002 5.35923 11.1389 5.36113C12.0833 5.36113 13.0278 5.48553 13.9167 5.73553C16.0411 4.29111 16.9722 4.59778 16.9722 4.59778C17.5833 6.12553 17.1945 7.26443 17.0833 7.54223C17.7911 8.32003 18.2222 9.30553 18.2222 10.5278C18.2222 14.7922 15.6256 15.7366 13.1533 16.0144C13.5556 16.3611 13.9033 17.0278 13.9033 18.07C13.9033 19.5555 13.8889 20.75 13.8889 21.1255C13.8889 21.4166 14.0978 21.7633 14.6533 21.6522C16.8589 20.9075 18.7755 19.49 20.1332 17.599C21.491 15.7081 22.2216 13.439 22.2222 11.1111C22.2222 4.97222 17.25 0 11.1111 0Z" fill="#6C6F93"/>
</svg>
