<svg width="23" height="19" viewBox="0 0 23 19" fill="none" xmlns="http://www.w3.org/2000/svg">
<path d="M22.6478 2.18605C21.7995 2.56127 20.9 2.80769 19.9789 2.91717C20.9498 2.33654 21.6764 1.42274 22.0234 0.346052C21.1123 0.888282 20.1134 1.26828 19.0723 1.47383C18.3729 0.725592 17.446 0.229352 16.4355 0.0622622C15.4251 -0.104828 14.3878 0.0666021 13.4848 0.549892C12.5818 1.03318 11.8638 1.80126 11.4424 2.73471C11.021 3.66815 10.9198 4.71465 11.1545 5.71165C9.30676 5.61905 7.49926 5.13885 5.84916 4.30235C4.19916 3.46585 2.74348 2.29166 1.57667 0.856052C1.16366 1.56544 0.94662 2.37186 0.94778 3.19272C0.94778 4.80385 1.76778 6.22715 3.01445 7.06045C2.27668 7.03725 1.55515 6.83805 0.91 6.47935V6.53715C0.91022 7.61015 1.28152 8.65005 1.96094 9.48055C2.64036 10.3111 3.58609 10.8811 4.63778 11.0939C3.95291 11.2795 3.23479 11.3068 2.53778 11.1739C2.8343 12.0975 3.41223 12.9052 4.19066 13.484C4.96909 14.0628 5.90906 14.3837 6.87886 14.4017C5.91496 15.1587 4.81131 15.7183 3.63098 16.0485C2.45065 16.3787 1.21681 16.4731 0 16.3261C2.12411 17.6921 4.59677 18.4173 7.12226 18.415C15.67 18.415 20.3445 11.3339 20.3445 5.19275C20.3445 4.99275 20.3389 4.79045 20.33 4.59275C21.2399 3.93515 22.0251 3.12052 22.6489 2.18717L22.6478 2.18605Z" fill="#6C6F93"/>
</svg>
